<svg xmlns="http://www.w3.org/2000/svg" data-name="Layer 1" viewBox="0 0 87.05 99.58" x="0px" y="0px"><defs><style>.cls-1{fill:none;}</style></defs><title>15b</title><circle class="cls-1" cx="52.14" cy="87.88" r="2.3"></circle><path d="M55.77,88.09a2.84,2.84,0,1,0,2.84-2.84h0A2.84,2.84,0,0,0,55.77,88.09Zm5.14,0a2.3,2.3,0,1,1-2.35-2.3,2.3,2.3,0,0,1,2.35,2.3Z" transform="translate(-6.48 -0.21)"></path><path d="M88.64.21H28.69A4.89,4.89,0,0,0,23.83,5.1V31.56h1.07V5.07a3.82,3.82,0,0,1,3.8-3.8H88.64A3.82,3.82,0,0,1,92.46,5.1V90.63a3.82,3.82,0,0,1-3.82,3.82H47.09v1.07H88.64a4.89,4.89,0,0,0,4.89-4.89h0V5.07A4.89,4.89,0,0,0,88.64.21Z" transform="translate(-6.48 -0.21)"></path><path d="M47.09,81.13H85.93a4.27,4.27,0,0,0,4.27-4.27V10.71a4.27,4.27,0,0,0-4.27-4.27H31.29A4.27,4.27,0,0,0,27,10.71v21H42.82A4.27,4.27,0,0,1,47.09,36Z" transform="translate(-6.48 -0.21)"></path><circle class="cls-1" cx="18.8" cy="93.47" r="2.3"></circle><path class="cls-1" d="M39.11,35.72H11.36a3.82,3.82,0,0,0-3.82,3.8V94.9a3.82,3.82,0,0,0,3.82,3.82H39.11a3.82,3.82,0,0,0,3.82-3.82V39.41A3.82,3.82,0,0,0,39.11,35.72ZM25.28,96.52a2.84,2.84,0,1,1,2.84-2.84,2.84,2.84,0,0,1-2.84,2.84ZM41,83.91a4.27,4.27,0,0,1-4.27,4.27H13.9a4.27,4.27,0,0,1-4.27-4.27V44.85a4.27,4.27,0,0,1,4.27-4.27H36.63a4.27,4.27,0,0,1,4.27,4.27Z" transform="translate(-6.48 -0.21)"></path><path d="M39.11,34.65H11.36a4.89,4.89,0,0,0-4.89,4.87V94.9a4.89,4.89,0,0,0,4.89,4.89H39.11A4.89,4.89,0,0,0,44,94.9V39.41A4.89,4.89,0,0,0,39.11,34.65ZM42.93,94.9a3.82,3.82,0,0,1-3.82,3.82H11.36A3.82,3.82,0,0,1,7.63,94.9V39.41a3.82,3.82,0,0,1,3.82-3.8H39.19A3.82,3.82,0,0,1,43,39.41Z" transform="translate(-6.48 -0.21)"></path><rect x="3.09" y="40.29" width="31.39" height="47.76" rx="4.35" ry="4.35"></rect><path d="M25.28,90.86a2.84,2.84,0,1,0,2.84,2.84,2.84,2.84,0,0,0-2.84-2.84Zm0,5.14a2.3,2.3,0,1,1,2.3-2.3,2.3,2.3,0,0,1-2.3,2.3Z" transform="translate(-6.48 -0.21)"></path></svg>