<?xml version="1.0" encoding="UTF-8"?>
<svg width="94px" height="88px" viewBox="0 0 94 88" version="1.1" xmlns="http://www.w3.org/2000/svg" xmlns:xlink="http://www.w3.org/1999/xlink">
    <!-- Generator: Sketch 47.1 (45422) - http://www.bohemiancoding.com/sketch -->
    <title>noun_853979 (1)</title>
    <desc>Created with Sketch.</desc>
    <defs></defs>
    <g id="Page-1" stroke="none" stroke-width="1" fill="none" fill-rule="evenodd">
        <g id="noun_853979-(1)" transform="translate(-1.000000, 0.000000)" fill-rule="nonzero" fill="#000000">
            <path d="M4.9,88 C4.1,88 3.2,87.7 2.5,87.2 C0.8,85.9 0.5,83.5 1.8,81.8 L25.9,50.4 C26.7,49.4 27.8,48.8 29.1,48.9 C30.3,48.9 31.5,49.5 32.2,50.5 L41.6,63.8 L55.4,26.1 C55.9,24.7 57.1,23.8 58.6,23.6 C60.1,23.4 61.5,24.1 62.3,25.3 L73,41.3 L86.8,2.7 C87.5,0.7 89.7,-0.4 91.8,0.4 C93.8,1.1 94.9,3.3 94.1,5.4 L77.7,51 C77.2,52.4 76,53.4 74.5,53.5 C73,53.7 71.6,53 70.8,51.8 L60,35.9 L46.3,73.4 C45.8,74.8 44.6,75.7 43.2,75.9 C41.8,76.1 40.4,75.5 39.5,74.3 L28.9,59.3 L8,86.5 C7.2,87.5 6.1,88 4.9,88 Z" id="Shape"></path>
        </g>
    </g>
</svg>