<svg xmlns="http://www.w3.org/2000/svg" xmlns:xlink="http://www.w3.org/1999/xlink" version="1.1" x="0px" y="0px" viewBox="0 0 90 90" enable-background="new 0 0 90 90" xml:space="preserve"><path d="M81.33,9.973l-19.596,10.35l-0.279,0.147l-14.654,7.742c1.439,2.727,6.512,4.234,10.637,2.057  c3.047-1.61,4.797-4.632,4.867-7.311c2.891-1.409,13.59-6.627,16.566-8.198C82.322,12.935,81.33,9.973,81.33,9.973z"></path><path d="M41.119,36.845c-17.994,0-32.582,4.746-32.582,10.601c0,17.994,14.588,32.582,32.582,32.582  c17.994,0,32.582-14.588,32.582-32.582C73.701,41.591,59.113,36.845,41.119,36.845z M41.119,39.248  c16.178,0,29.293,3.672,29.293,8.197c0,1.025-0.678,2.004-1.904,2.908c-5.002-3.332-16.453-5.096-27.389-5.096  c-10.935,0-22.386,1.764-27.388,5.096c-1.227-0.904-1.904-1.883-1.904-2.908C11.827,42.92,24.942,39.248,41.119,39.248z   M15.083,51.199c4.334-2.486,13.848-4.557,26.037-4.557c12.189,0,21.703,2.07,26.037,4.557c-4.867,2.639-14.695,4.443-26.037,4.443  C29.778,55.643,19.95,53.838,15.083,51.199z"></path><circle cx="43.115" cy="30.329" r="1.335"></circle><circle cx="46.84" cy="34.487" r="1.335"></circle><circle cx="45.504" cy="25.412" r="1.335"></circle><circle cx="42.793" cy="41.359" r="1.336"></circle><path d="M46.84,44.434c0.736,0,1.336-0.596,1.336-1.336c0-0.736-0.6-1.334-1.336-1.334c-0.738,0-1.336,0.598-1.336,1.334  C45.504,43.838,46.102,44.434,46.84,44.434z"></path><path d="M44.129,50.117c0.736,0,1.334-0.6,1.334-1.338c0-0.736-0.598-1.334-1.334-1.334c-0.74,0-1.336,0.598-1.336,1.334  C42.793,49.518,43.389,50.117,44.129,50.117z"></path><circle cx="36.698" cy="49.709" r="1.336"></circle><circle cx="40.85" cy="51.043" r="1.336"></circle><circle cx="47.611" cy="51.045" r="1.336"></circle></svg>