<?xml version="1.0" encoding="UTF-8"?>
<svg width="86px" height="78px" viewBox="0 0 86 78" version="1.1" xmlns="http://www.w3.org/2000/svg" xmlns:xlink="http://www.w3.org/1999/xlink">
    <g id="Page-1" stroke="none" stroke-width="1" fill="none" fill-rule="evenodd">
        <g id="noun_693658_cc" fill-rule="nonzero" fill="#000000">
            <path d="M36.4,77.6 C37.5,77.6 38.4,76.7 38.4,75.6 L38.4,29.5 L47.5,29.5 L47.5,75.6 C47.5,76.7 48.4,77.6 49.5,77.6 L58,77.6 C59.1,77.6 60,76.7 60,75.6 L60,14.4 L60,4.5 L69.1,4.5 L69.1,14.4 L69.1,75.6 C69.1,76.7 70,77.6 71.1,77.6 L78.6,77.6 C82.4,77.6 85.5,74.5 85.5,70.7 L85.5,19.2 C85.5,15.4 82.4,12.3 78.6,12.3 C77.5,12.3 76.6,13.2 76.6,14.3 L76.6,14.3 C76.6,15.4 77.5,16.3 78.6,16.3 C80.2,16.3 81.5,17.6 81.5,19.2 L81.5,70.7 C81.5,72.3 80.2,73.6 78.6,73.6 L73.1,73.6 L73.1,14.4 L73.1,2.4 C73.1,1.3 72.2,0.4 71.1,0.4 L58,0.4 C56.9,0.4 56,1.3 56,2.4 L56,14.3 L56,73.5 L51.6,73.5 L51.6,27.5 C51.6,26.4 50.7,25.5 49.6,25.5 L36.4,25.5 C35.3,25.5 34.4,26.4 34.4,27.5 L34.4,73.6 L30,73.6 L30,36.5 C30,35.4 29.1,34.5 28,34.5 L14.8,34.5 C13.7,34.5 12.8,35.4 12.8,36.5 L12.8,73.6 L7.4,73.6 C5.8,73.6 4.5,72.3 4.5,70.7 L4.5,19.2 C4.5,17.6 5.8,16.3 7.4,16.3 L43,16.3 C44.1,16.3 45,15.4 45,14.3 L45,14.3 C45,13.2 44.1,12.3 43,12.3 L7.4,12.3 C3.6,12.3 0.5,15.4 0.5,19.2 L0.5,70.7 C0.5,74.5 3.6,77.6 7.4,77.6 L14.8,77.6 C15.9,77.6 16.8,76.7 16.8,75.6 L16.8,38.5 L26,38.5 L26,75.6 C26,76.7 26.9,77.6 28,77.6 L36.4,77.6 Z" id="Shape"></path>
        </g>
    </g>
</svg>
