<svg xmlns="http://www.w3.org/2000/svg" viewBox="0 0 82 63.75" x="0px" y="0px"><title>Stat3</title><g data-name="Layer 2"><g data-name="Layer 1"><path d="M66.53,28.11a1,1,0,0,1-.84-1.54l2.16-3.37a1,1,0,1,1,1.68,1.08l-2.16,3.37A1,1,0,0,1,66.53,28.11Zm4.31-6.74A1,1,0,0,1,70,19.83l2.16-3.37a1,1,0,1,1,1.68,1.08l-2.16,3.37A1,1,0,0,1,70.84,21.37Z"/><path d="M59,29a1,1,0,0,1-.9-.55l-1.79-3.58A1,1,0,1,1,58.11,24l1.79,3.58A1,1,0,0,1,59,29Zm-3.58-7.16a1,1,0,0,1-.9-.55l-1.79-3.58a1,1,0,0,1,1.79-.89l1.79,3.58a1,1,0,0,1-.89,1.45Zm-3.58-7.16a1,1,0,0,1-.9-.55l-.84-1.69a1,1,0,1,1,1.79-.89l.84,1.69a1,1,0,0,1-.89,1.45Z"/><path d="M37.09,39a1,1,0,0,1-.93-1.37l1.07-2.69a1,1,0,0,1,1.86.74L38,38.37A1,1,0,0,1,37.09,39Zm2.54-6.41a1,1,0,0,1-.93-1.37l1.47-3.72a1,1,0,0,1,1.86.74L40.56,32A1,1,0,0,1,39.63,32.59Zm2.95-7.44a1,1,0,0,1-.93-1.37l1.47-3.72A1,1,0,0,1,45,20.8l-1.47,3.72A1,1,0,0,1,42.58,25.16Zm2.95-7.44a1,1,0,0,1-.93-1.37l1.47-3.72a1,1,0,1,1,1.86.74l-1.47,3.72A1,1,0,0,1,45.53,17.72Z"/><path d="M32.78,39.08a1,1,0,0,1-.86-.48l-2.08-3.42a1,1,0,1,1,1.71-1l2.08,3.42a1,1,0,0,1-.85,1.52Zm-4.16-6.83a1,1,0,0,1-.86-.48l-2.08-3.42a1,1,0,1,1,1.71-1l2.08,3.42a1,1,0,0,1-.85,1.52Zm-4.16-6.83a1,1,0,0,1-.86-.48l-1.47-2.41a1,1,0,0,1,1.71-1l1.47,2.41a1,1,0,0,1-.85,1.52Z"/><path d="M10.39,30.8a1,1,0,0,1-.77-1.63l1.55-1.9a1,1,0,1,1,1.55,1.26l-1.55,1.9A1,1,0,0,1,10.39,30.8Zm4.08-5a1,1,0,0,1-.77-1.63l2.53-3.1a1,1,0,1,1,1.55,1.26l-2.53,3.1A1,1,0,0,1,14.47,25.79Z"/><path d="M5,41a5,5,0,1,1,1.8-.34A5,5,0,0,1,5,41Zm0-8a3,3,0,1,0,2.8,1.92A3,3,0,0,0,5,33Z"/><path d="M35,51a5,5,0,1,1,4.66-6.81h0A5,5,0,0,1,35,51Zm0-8a3,3,0,1,0,2.8,1.92h0A3,3,0,0,0,35,43Z"/><path d="M20,19a5,5,0,1,1,1.8-.34A5,5,0,0,1,20,19Zm0-8a3,3,0,1,0,2.8,1.92A3,3,0,0,0,20,11Z"/><path d="M77,14a5,5,0,1,1,1.8-.34A5,5,0,0,1,77,14Zm0-8a3,3,0,1,0,2.8,1.92A3,3,0,0,0,77,6Z"/><path d="M49,10a5,5,0,1,1,1.8-.34A5,5,0,0,1,49,10Zm0-8a3,3,0,1,0,2.8,1.92A3,3,0,0,0,49,2Z"/><path d="M62,40a5,5,0,1,1,4.66-6.81h0A5,5,0,0,1,62,40Zm0-8a3,3,0,0,0-2.79,4.08,3,3,0,1,0,5.59-2.17h0A3,3,0,0,0,62,32Z"/></g></g><text x="0" y="66" fill="#000000" font-size="5px" font-weight="bold" font-family="'Helvetica Neue', Helvetica, Arial-Unicode, Arial, Sans-serif">Created by Makarenko Andrey</text><text x="0" y="71" fill="#000000" font-size="5px" font-weight="bold" font-family="'Helvetica Neue', Helvetica, Arial-Unicode, Arial, Sans-serif">from the Noun Project</text></svg>