<svg xmlns="http://www.w3.org/2000/svg" data-name="Layer 1" viewBox="0 0 100 125" x="0px" y="0px">
<title>02</title>
<path d="M79,77H65V76a1,1,0,0,0-2,0v1H35V76a1,1,0,0,0-2,0v1H19a1,1,0,0,0,0,2H79a1,1,0,0,0,0-2Z"/>
<path d="M63,71.92a1,1,0,0,0,2,0v-2a1,1,0,0,0-2,0Z"/><path d="M63,65.81a1,1,0,0,0,2,0v-2a1,1,0,0,0-2,0Z"/>
<path d="M34,24a1,1,0,0,0,1-1V22a1,1,0,0,0-2,0v1A1,1,0,0,0,34,24Z"/><path d="M34,50.54a1,1,0,0,0-1,1v2a1,1,0,0,0,2,0v-2A1,1,0,0,0,34,50.54Z"/>
<path d="M34,30.12a1,1,0,0,0,1-1v-2a1,1,0,0,0-2,0v2A1,1,0,0,0,34,30.12Z"/><path d="M35,45.42a1,1,0,0,0-2,0v2a1,1,0,0,0,2,0Z"/>
<path d="M34,72.92a1,1,0,0,0,1-1v-2a1,1,0,0,0-2,0v2A1,1,0,0,0,34,72.92Z"/>
<path d="M34,36.23a1,1,0,0,0,1-1v-2a1,1,0,0,0-2,0v2A1,1,0,0,0,34,36.23Z"/>
<path d="M64.56,28.84a1,1,0,0,0,1-1v-1a1,1,0,1,0-2,0v1A1,1,0,0,0,64.56,28.84Z"/>
<path d="M65.56,44.15a1,1,0,0,0-2,0v2a1,1,0,0,0,2,0Z"/><path d="M64.56,49.27a1,1,0,0,0-1,1v2a1,1,0,0,0,2,0v-2A1,1,0,0,0,64.56,49.27Z"/>
<path d="M64.56,65.54a1,1,0,0,0,1-1v-2a1,1,0,0,0-2,0v2A1,1,0,0,0,64.56,65.54Z"/>
<path d="M64.56,35a1,1,0,0,0,1-1v-2a1,1,0,0,0-2,0v2A1,1,0,0,0,64.56,35Z"/>
<path d="M83.23,40.4l-13,15.65-4.63,2.42s0,0,0,0v-2a1,1,0,0,0-2,0v2a1,1,0,0,0,.48.84L53.3,64.87,39.11,61a1,1,0,0,0-1,.29l-2.54,2.77V62.5a1,1,0,0,0-2,0v2a1,1,0,0,0,.7.94l-6,6.53-12-3.92a1,1,0,1,0-.62,1.9l12.58,4.12a1,1,0,0,0,1-.27l4.24-4.63v1.45a1,1,0,0,0,2,0v-2a1,1,0,0,0-.62-.92l4.22-4.6,14,3.82a1,1,0,0,0,.73-.08l17.41-9.1a1,1,0,0,0,.31-.25L84.77,41.68a1,1,0,0,0-1.54-1.28Z"/><path d="M18,57.65a1,1,0,0,0,.72-.3L28.91,46.87l16.72,3.69a1,1,0,0,0,1-.41L53.85,39.7l14.73,3.73a1,1,0,0,0,.94-.25L82.7,30.37a1,1,0,1,0-1.39-1.43L68.53,41.36l-3.11-.79a1,1,0,0,0,.15-.49V38a1,1,0,0,0-2,0V40.1l-9.9-2.51a1,1,0,0,0-1.07.4L45.4,48.46l-9.86-2.18a.87.87,0,0,0,0-.09v-2a1,1,0,0,0-2,0v1.69L28.8,44.8a1,1,0,0,0-.93.28L17.28,56a1,1,0,0,0,.72,1.7Z"/>
</svg>
