<?xml version="1.0" encoding="UTF-8"?>
<svg width="57px" height="57px" viewBox="0 0 57 57" version="1.1" xmlns="http://www.w3.org/2000/svg" xmlns:xlink="http://www.w3.org/1999/xlink">
    <!-- Generator: Sketch 47.1 (45422) - http://www.bohemiancoding.com/sketch -->
    <title>Icon up</title>
    <desc>Created with Sketch.</desc>
    <defs></defs>
    <g id="Symbols" stroke="none" stroke-width="1" fill="none" fill-rule="evenodd">
        <g id="icons/white/circle-up" transform="translate(1.000000, 1.000000)" stroke="#FFFFFF">
            <g id="Icon-up">
                <path d="M34.609375,22.859375 C34.3281236,23.1406264 34.0468764,23.1406264 33.765625,22.859375 L28.5625,18.1484375 L28.5625,38.1875 C28.5625,38.5625019 28.3750019,38.75 28,38.75 C27.6249981,38.75 27.4375,38.5625019 27.4375,38.1875 L27.4375,18.1484375 L22.234375,22.859375 C21.9531236,23.1406264 21.6718764,23.1406264 21.390625,22.859375 C21.1093736,22.5781236 21.1093736,22.2968764 21.390625,22.015625 C25.4687704,18.3124815 27.5312498,16.4375002 27.578125,16.390625 C27.6718755,16.2968745 27.8124991,16.25 28,16.25 C28.1875009,16.25 28.3281245,16.2968745 28.421875,16.390625 L34.609375,22.015625 C34.7031255,22.1093755 34.75,22.2499991 34.75,22.4375 C34.75,22.6250009 34.7031255,22.7656245 34.609375,22.859375 Z" id="ion-ios-arrow-thin-up---Ionicons" fill="#FFFFFF"></path>
                <path d="M27.5,55 C36.6479635,55 44.7526609,50.533247 49.752051,43.6617823 C53.0528569,39.1249546 55,33.5398671 55,27.5 C55,12.3121694 42.6878306,0 27.5,0 C12.3121694,0 0,12.3121694 0,27.5 C0,42.6878306 12.3121694,55 27.5,55 Z" id="Oval" stroke-width="1.5"></path>
            </g>
        </g>
    </g>
</svg>