<?xml version="1.0" encoding="UTF-8"?>
<svg width="180px" height="87px" viewBox="0 0 180 87" version="1.1" xmlns="http://www.w3.org/2000/svg" xmlns:xlink="http://www.w3.org/1999/xlink">
    <!-- Generator: Sketch 47.1 (45422) - http://www.bohemiancoding.com/sketch -->
    <title>icons/white/wind</title>
    <desc>Created with Sketch.</desc>
    <defs></defs>
    <g id="Symbols" stroke="none" stroke-width="1" fill="none" fill-rule="evenodd">
        <g id="icons/white/wind" stroke-width="2" stroke="#FFFFFF" fill="#FFFFFF" fill-rule="nonzero">
            <g id="wind">
                <path d="M111.084921,25 L34.1405851,25 C32.256234,25 31,23.2876712 31,21.5753425 C31,19.8630137 32.5702926,18.1506849 34.1405851,18.1506849 L111.084921,18.1506849 C136.209602,18.1506849 149.714118,13.0136986 149.714118,3.42465753 C149.714118,1.36986301 151.28441,0 152.854703,0 C154.424995,0 155.995288,1.71232877 155.995288,3.42465753 C156.309346,17.8082192 140.920479,25 111.084921,25 Z" id="Shape"></path>
                <path d="M176.532399,67 C174.640981,67 173.380035,65.3766234 173.380035,63.7532468 C173.380035,58.2337662 165.499124,48.4935065 136.182137,48.4935065 L3.15236427,48.4935065 C1.26094571,48.4935065 0,46.8701299 0,45.2467532 C0,43.6233766 1.57618214,42 3.15236427,42 L136.182137,42 C177.793345,42 180,60.1818182 180,64.0779221 C180,65.7012987 178.423818,67 176.532399,67 Z" id="Shape"></path>
                <path d="M121.828571,87 C119.925714,87 118.657143,85.3333333 118.657143,83.6666667 C118.657143,78.6666667 109.777143,72.6666667 85.3571429,72.6666667 L17.1714286,72.6666667 C15.2685714,72.6666667 14,71 14,69.3333333 C14,67.6666667 15.5857143,66 17.1714286,66 L85.04,66 C119.925714,66 125,77.3333333 125,84 C125,85.6666667 123.414286,87 121.828571,87 Z" id="Shape"></path>
            </g>
        </g>
    </g>
</svg>